<svg xmlns="http://www.w3.org/2000/svg" width="512" height="512" viewBox="0 0 512 512">
  <defs><linearGradient id="bg" x2="0" y2="1"><stop stop-color="#f7f9ff"/><stop offset="1" stop-color="#dce5ff"/></linearGradient><filter id="s"><feDropShadow dx="0" dy="12" stdDeviation="16" flood-opacity=".22"/></filter></defs>
  <rect width="512" height="512" rx="116" fill="url(#bg)"/>
  <g filter="url(#s)"><rect x="61" y="72" width="116" height="62" rx="21" fill="#376cff"/><rect x="198" y="72" width="116" height="62" rx="21" fill="#ff6c68"/><rect x="335" y="72" width="116" height="62" rx="21" fill="#ffc247"/><rect x="90" y="157" width="145" height="62" rx="21" fill="#52ddb0"/><rect x="277" y="157" width="145" height="62" rx="21" fill="#376cff"/></g>
  <circle cx="294" cy="287" r="42" fill="#b9caff" opacity=".6"/><circle cx="294" cy="287" r="31" fill="#fff"/><circle cx="284" cy="282" r="5" fill="#182241"/><circle cx="304" cy="282" r="5" fill="#182241"/><path d="M283 298c8 9 16 9 24 0" fill="none" stroke="#61719a" stroke-width="5" stroke-linecap="round"/>
  <rect x="116" y="384" width="280" height="49" rx="24.5" fill="#fff" filter="url(#s)"/><rect x="165" y="400" width="182" height="11" rx="5.5" fill="#376cff"/>
</svg>
